<?xml version="1.0" encoding="UTF-8"?><svg id="Layer_1" xmlns="http://www.w3.org/2000/svg" viewBox="0 0 588.27 588.27"><defs><style>.cls-1{fill:#231f20;}.cls-2{fill:#fff;stroke:#231f20;stroke-miterlimit:10;stroke-width:1.57px;}.cls-3{font-family:AltaCalifornia, AltaCalifornia;font-size:120px;}</style></defs><circle class="cls-2" cx="294.14" cy="294.14" r="293.35"/><rect class="cls-1" x="289.19" y="9.31" width="9.89" height="45.49"/><rect class="cls-1" x="289.19" y="533.69" width="9.89" height="45.49"/><rect class="cls-1" x="551.38" y="271.5" width="9.89" height="45.49" transform="translate(850.57 -262.08) rotate(90)"/><rect class="cls-1" x="27" y="271.5" width="9.89" height="45.49" transform="translate(326.19 262.3) rotate(90)"/><rect class="cls-1" x="516.25" y="402.59" width="9.89" height="45.49" transform="translate(1150.15 186.63) rotate(120)"/><rect class="cls-1" x="62.13" y="140.4" width="9.89" height="45.49" transform="translate(241.9 186.63) rotate(120)"/><rect class="cls-1" x="420.29" y="498.56" width="9.89" height="45.49" transform="translate(1054.14 760.15) rotate(150)"/><rect class="cls-1" x="158.1" y="44.43" width="9.89" height="45.49" transform="translate(337.83 43.84) rotate(150)"/><rect class="cls-1" x="420.29" y="44.43" width="9.89" height="45.49" transform="translate(90.56 -203.61) rotate(30)"/><rect class="cls-1" x="158.1" y="498.56" width="9.89" height="45.49" transform="translate(282.5 -11.68) rotate(30)"/><rect class="cls-1" x="516.25" y="140.4" width="9.89" height="45.49" transform="translate(401.89 -369.8) rotate(60)"/><rect class="cls-1" x="62.13" y="402.59" width="9.89" height="45.49" transform="translate(401.89 154.58) rotate(60)"/><rect class="cls-1" x="264.26" y="10.74" width="4.94" height="45.49" transform="translate(-2.04 28.06) rotate(-6)"/><rect class="cls-1" x="319.07" y="532.25" width="4.94" height="45.49" transform="translate(-56.25 36.65) rotate(-6)"/><rect class="cls-1" x="237.15" y="15.04" width="4.94" height="45.49" transform="translate(-2.62 50.65) rotate(-12)"/><rect class="cls-1" x="346.18" y="527.96" width="4.94" height="45.49" transform="translate(-106.88 84.52) rotate(-12)"/><rect class="cls-1" x="210.64" y="22.14" width="4.94" height="45.49" transform="translate(-3.44 68.05) rotate(-18)"/><rect class="cls-1" x="372.68" y="520.85" width="4.94" height="45.49" transform="translate(-149.62 142.54) rotate(-18)"/><rect class="cls-1" x="185.02" y="31.97" width="4.94" height="45.49" transform="translate(-6.05 80.99) rotate(-24)"/><rect class="cls-1" x="398.31" y="511.02" width="4.94" height="45.49" transform="translate(-182.45 209.16) rotate(-24)"/><rect class="cls-1" x="137.55" y="59.38" width="4.94" height="45.49" transform="translate(-21.53 97.99) rotate(-36)"/><rect class="cls-1" x="445.78" y="483.61" width="4.94" height="45.49" transform="translate(-212.02 360.18) rotate(-36)"/><rect class="cls-1" x="116.22" y="76.65" width="4.94" height="45.49" transform="translate(-36.02 104.95) rotate(-42)"/><rect class="cls-1" x="467.1" y="466.34" width="4.94" height="45.49" transform="translate(-206.65 439.83) rotate(-42)"/><rect class="cls-1" x="96.82" y="96.06" width="4.94" height="45.49" transform="translate(-55.44 113.1) rotate(-48)"/><rect class="cls-1" x="486.51" y="446.93" width="4.94" height="45.49" transform="translate(-187.25 518.79) rotate(-48)"/><rect class="cls-1" x="79.55" y="117.38" width="4.94" height="45.49" transform="translate(-79.56 124.12) rotate(-54)"/><rect class="cls-1" x="503.78" y="425.61" width="4.94" height="45.49" transform="translate(-154.04 594.38) rotate(-54)"/><rect class="cls-1" x="52.14" y="164.85" width="4.94" height="45.49" transform="translate(-138.98 161.19) rotate(-66)"/><rect class="cls-1" x="531.19" y="378.14" width="4.94" height="45.49" transform="translate(-49.63 725.35) rotate(-66)"/><rect class="cls-1" x="42.31" y="190.47" width="4.94" height="45.49" transform="translate(-171.84 189.92) rotate(-72)"/><rect class="cls-1" x="541.02" y="352.52" width="4.94" height="45.49" transform="translate(18.65 776.19) rotate(-72)"/><rect class="cls-1" x="35.2" y="216.98" width="4.94" height="45.49" transform="translate(-204.65 226.74) rotate(-78)"/><rect class="cls-1" x="548.12" y="326.01" width="4.94" height="45.49" transform="translate(94.99 814.81) rotate(-78)"/><rect class="cls-1" x="30.91" y="244.09" width="4.94" height="45.49" transform="translate(-235.48 272.14) rotate(-84)"/><rect class="cls-1" x="552.42" y="298.9" width="4.94" height="45.49" transform="translate(177 839.88) rotate(-84)"/><rect class="cls-1" x="30.91" y="298.9" width="4.94" height="45.49" transform="translate(-283.01 388.47) rotate(-96)"/><rect class="cls-1" x="552.42" y="244.09" width="4.94" height="45.49" transform="translate(347.52 846.58) rotate(-96)"/><rect class="cls-1" x="35.2" y="326.01" width="4.94" height="45.49" transform="translate(-295.62 458.12) rotate(-102)"/><rect class="cls-1" x="548.12" y="216.98" width="4.94" height="45.49" transform="translate(430.58 828.14) rotate(-102)"/><rect class="cls-1" x="42.31" y="352.52" width="4.94" height="45.49" transform="translate(-298.28 533.81) rotate(-108)"/><rect class="cls-1" x="541.02" y="190.47" width="4.94" height="45.49" transform="translate(508.66 796) rotate(-108)"/><rect class="cls-1" x="52.14" y="378.14" width="4.94" height="45.49" transform="translate(-289.4 613.83) rotate(-114)"/><rect class="cls-1" x="531.19" y="164.85" width="4.94" height="45.49" transform="translate(579.33 751.42) rotate(-114)"/><rect class="cls-1" x="79.55" y="425.61" width="4.94" height="45.49" transform="translate(-232.5 778.24) rotate(-126)"/><rect class="cls-1" x="503.78" y="117.38" width="4.94" height="45.49" transform="translate(690.45 632.06) rotate(-126)"/><rect class="cls-1" x="96.82" y="446.93" width="4.94" height="45.49" transform="translate(-183.31 857.75) rotate(-132)"/><rect class="cls-1" x="486.51" y="96.06" width="4.94" height="45.49" transform="translate(727.88 561.68) rotate(-132)"/><rect class="cls-1" x="116.22" y="466.34" width="4.94" height="45.49" transform="translate(-120.36 931.97) rotate(-138)"/><rect class="cls-1" x="467.1" y="76.65" width="4.94" height="45.49" transform="translate(752.03 487.47) rotate(-138)"/><rect class="cls-1" x="137.55" y="483.61" width="4.94" height="45.49" transform="translate(-44.32 998.31) rotate(-144)"/><rect class="cls-1" x="445.78" y="59.38" width="4.94" height="45.49" transform="translate(762.61 412.04) rotate(-144)"/><rect class="cls-1" x="185.02" y="511.02" width="4.94" height="45.49" transform="translate(141.68 1097.64) rotate(-156)"/><rect class="cls-1" x="398.31" y="31.97" width="4.94" height="45.49" transform="translate(744.65 267.72) rotate(-156)"/><rect class="cls-1" x="210.64" y="520.85" width="4.94" height="45.49" transform="translate(247.82 1126.45) rotate(-162)"/><rect class="cls-1" x="372.68" y="22.14" width="4.94" height="45.49" transform="translate(718.08 203.5) rotate(-162)"/><rect class="cls-1" x="237.15" y="527.96" width="4.94" height="45.49" transform="translate(359.51 1139.19) rotate(-168)"/><rect class="cls-1" x="346.18" y="15.04" width="4.94" height="45.49" transform="translate(681.82 147.23) rotate(-168)"/><rect class="cls-1" x="264.26" y="532.25" width="4.94" height="45.49" transform="translate(473.98 1134.83) rotate(-174)"/><rect class="cls-1" x="319.07" y="10.74" width="4.94" height="45.49" transform="translate(637.82 100.4) rotate(-174)"/><text class="cls-3" transform="translate(375.16 157.73)"><tspan x="0" y="0">1</tspan></text><text class="cls-3" transform="translate(411.29 226.6)"><tspan x="0" y="0">2</tspan></text><text class="cls-3" transform="translate(474.27 321.65)"><tspan x="0" y="0">3</tspan></text><text class="cls-3" transform="translate(439.24 418.82)"><tspan x="0" y="0">4</tspan></text><text class="cls-3" transform="translate(353.59 478.85)"><tspan x="0" y="0">5</tspan></text><text class="cls-3" transform="translate(244.57 135.29)"><tspan x="0" y="0">12</tspan></text><text class="cls-3" transform="translate(163.04 169.68)"><tspan x="0" y="0">11</tspan></text><text class="cls-3" transform="translate(99.29 239.73)"><tspan x="0" y="0">10</tspan></text><text class="cls-3" transform="translate(82.02 321.65)"><tspan x="0" y="0">9</tspan></text><text class="cls-3" transform="translate(118.7 420.84)"><tspan x="0" y="0">8</tspan></text><text class="cls-3" transform="translate(177.55 469.68)"><tspan x="0" y="0">7</tspan></text><text class="cls-3" transform="translate(271.24 512.1)"><tspan x="0" y="0">6</tspan></text></svg>